HIERARCHY
ROOT hip
{
  OFFSET 0 0 0
  CHANNELS 6 Xposition Yposition Zposition Zrotation Yrotation Xrotation
  JOINT abdomen
  {
    OFFSET 0 20.6881 -0.73152
    CHANNELS 3 Zrotation Xrotation Yrotation
    JOINT chest
    {
      OFFSET 0 11.7043 -0.48768
      CHANNELS 3 Zrotation Xrotation Yrotation
      JOINT neck
      {
        OFFSET 0 22.1894 -2.19456
        CHANNELS 3 Zrotation Xrotation Yrotation
        JOINT head
        {
          OFFSET -0.24384 7.07133 1.2192
          CHANNELS 3 Zrotation Xrotation Yrotation
          JOINT leftEye
          {
            OFFSET 4.14528 8.04674 8.04672
            CHANNELS 3 Zrotation Xrotation Yrotation
            End Site
            {
              OFFSET 1 0 0
            }
          }
          JOINT rightEye
          {
            OFFSET -3.6576 8.04674 8.04672
            CHANNELS 3 Zrotation Xrotation Yrotation
            End Site
            {
              OFFSET 1 0 0
            }
          }
        }
      }
      JOINT rCollar
      {
        OFFSET -2.68224 19.2634 -4.8768
        CHANNELS 3 Zrotation Xrotation Yrotation
        JOINT rShldr
        {
          OFFSET -8.77824 -1.95073 1.46304
          CHANNELS 3 Zrotation Xrotation Yrotation
          JOINT rForeArm
          {
            OFFSET -28.1742 -1.7115 0.48768
            CHANNELS 3 Zrotation Xrotation Yrotation
            JOINT rHand
            {
              OFFSET -22.5879 0.773209 7.07136
              CHANNELS 3 Zrotation Xrotation Yrotation
              JOINT rThumb1
              {
                OFFSET -1.2192 -0.487915 3.41376
                CHANNELS 3 Zrotation Xrotation Yrotation
                JOINT rThumb2
                {
                  OFFSET -3.37035 -0.52449 3.41376
                  CHANNELS 3 Zrotation Xrotation Yrotation
                  End Site
                  {
                    OFFSET -1.78271 -1.18214 1.43049
                  }
                }
              }
              JOINT rIndex1
              {
                OFFSET -7.75947 0.938293 5.60832
                CHANNELS 3 Zrotation Xrotation Yrotation
                JOINT rIndex2
                {
                  OFFSET -2.54057 -0.884171 1.56538
                  CHANNELS 3 Zrotation Xrotation Yrotation
                  End Site
                  {
                    OFFSET -1.62519 -0.234802 1.16502
                  }
                }
              }
              JOINT rMid1
              {
                OFFSET -8.24714 1.18213 3.41376
                CHANNELS 3 Zrotation Xrotation Yrotation
                JOINT rMid2
                {
                  OFFSET -3.10165 -0.590103 1.0647
                  CHANNELS 3 Zrotation Xrotation Yrotation
                  End Site
                  {
                    OFFSET -2.48547 -0.328903 0.83742
                  }
                }
              }
              JOINT rRing1
              {
                OFFSET -8.82822 0.546677 1.51678
                CHANNELS 3 Zrotation Xrotation Yrotation
                JOINT rRing2
                {
                  OFFSET -2.60934 -0.819778 -0.0198488
                  CHANNELS 3 Zrotation Xrotation Yrotation
                  End Site
                  {
                    OFFSET -2.33842 -0.294052 0.168128
                  }
                }
              }
              JOINT rPinky1
              {
                OFFSET -8.27202 -0.0477905 -0.4584
                CHANNELS 3 Zrotation Xrotation Yrotation
                JOINT rPinky2
                {
                  OFFSET -1.82734 -0.647385 -0.700984
                  CHANNELS 3 Zrotation Xrotation Yrotation
                  End Site
                  {
                    OFFSET -1.69225 -0.51767 -0.607171
                  }
                }
              }
            }
          }
        }
      }
      JOINT lCollar
      {
        OFFSET 2.68224 19.2634 -4.8768
        CHANNELS 3 Zrotation Xrotation Yrotation
        JOINT lShldr
        {
          OFFSET 8.77824 -1.95073 1.46304
          CHANNELS 3 Zrotation Xrotation Yrotation
          JOINT lForeArm
          {
            OFFSET 28.1742 -1.7115 0.48768
            CHANNELS 3 Zrotation Xrotation Yrotation
            JOINT lHand
            {
              OFFSET 22.5879 0.773209 7.07136
              CHANNELS 3 Zrotation Xrotation Yrotation
              JOINT lThumb1
              {
                OFFSET 1.2192 -0.487915 3.41376
                CHANNELS 3 Zrotation Xrotation Yrotation
                JOINT lThumb2
                {
                  OFFSET 3.37035 -0.52449 3.41376
                  CHANNELS 3 Zrotation Xrotation Yrotation
                  End Site
                  {
                    OFFSET 1.78271 -1.18214 1.43049
                  }
                }
              }
              JOINT lIndex1
              {
                OFFSET 7.75947 0.938293 5.60832
                CHANNELS 3 Zrotation Xrotation Yrotation
                JOINT lIndex2
                {
                  OFFSET 2.54057 -0.884171 1.56538
                  CHANNELS 3 Zrotation Xrotation Yrotation
                  End Site
                  {
                    OFFSET 1.62519 -0.234802 1.16502
                  }
                }
              }
              JOINT lMid1
              {
                OFFSET 8.24714 1.18213 3.41376
                CHANNELS 3 Zrotation Xrotation Yrotation
                JOINT lMid2
                {
                  OFFSET 3.10165 -0.590103 1.0647
                  CHANNELS 3 Zrotation Xrotation Yrotation
                  End Site
                  {
                    OFFSET 2.48547 -0.328903 0.83742
                  }
                }
              }
              JOINT lRing1
              {
                OFFSET 8.82822 0.546677 1.51678
                CHANNELS 3 Zrotation Xrotation Yrotation
                JOINT lRing2
                {
                  OFFSET 2.60934 -0.819778 -0.0198488
                  CHANNELS 3 Zrotation Xrotation Yrotation
                  End Site
                  {
                    OFFSET 2.33842 -0.294052 0.168128
                  }
                }
              }
              JOINT lPinky1
              {
                OFFSET 8.27202 -0.0477905 -0.4584
                CHANNELS 3 Zrotation Xrotation Yrotation
                JOINT lPinky2
                {
                  OFFSET 1.82734 -0.647385 -0.700984
                  CHANNELS 3 Zrotation Xrotation Yrotation
                  End Site
                  {
                    OFFSET 1.69225 -0.51767 -0.607171
                  }
                }
              }
            }
          }
        }
      }
    }
  }
  JOINT rButtock
  {
    OFFSET -8.77824 4.35084 1.2192
    CHANNELS 3 Zrotation Xrotation Yrotation
    JOINT rThigh
    {
      OFFSET 0 -1.70687 -2.19456
      CHANNELS 3 Zrotation Xrotation Yrotation
      JOINT rShin
      {
        OFFSET 0 -36.8199 0.73152
        CHANNELS 3 Zrotation Xrotation Yrotation
        JOINT rFoot
        {
          OFFSET 0.73152 -45.1104 -5.12064
          CHANNELS 3 Zrotation Xrotation Yrotation
          End Site
          {
            OFFSET -1.1221 -3.69964 12.103
          }
        }
      }
    }
  }
  JOINT lButtock
  {
    OFFSET 8.77824 4.35084 1.2192
    CHANNELS 3 Zrotation Xrotation Yrotation
    JOINT lThigh
    {
      OFFSET 0 -1.70687 -2.19456
      CHANNELS 3 Zrotation Xrotation Yrotation
      JOINT lShin
      {
        OFFSET 0 -36.8199 0.73152
        CHANNELS 3 Zrotation Xrotation Yrotation
        JOINT lFoot
        {
          OFFSET -0.73152 -45.1104 -5.12064
          CHANNELS 3 Zrotation Xrotation Yrotation
          End Site
          {
            OFFSET 1.1221 -3.69964 12.103
          }
        }
      }
    }
  }
}
MOTION
Frames:	4
Frame Time:	0.00833333
53.2727 85.5269 140.939 0.0 0.0 0.0 2.34099 -0.00222385 0.0637208 0.64659 0.00595039 0.111937 -7.71074e-15 0.0 -4.96962e-17 -2.16365e-14 3.18055e-15 -2.48481e-16 -0.0 0.0 0.0 -0.0 0.0 0.0 -3.87779e-15 -5.82377e-18 4.96962e-17 -7.598e-14 -4.16205e-16 1.98785e-16 -1.33335e-12 3.92997e-13 9.54166e-15 -1.52342e-11 -4.25523e-13 -1.59028e-13 -3.59355e-11 -6.82112e-14 -3.21236e-13 -6.20594e-11 -1.17681e-13 -5.48646e-13 -3.59307e-11 -6.48038e-14 -3.27597e-13 7.73091 5.47488 0.417314 -3.59351e-11 -6.87795e-14 -3.11694e-13 2.90554 0.965183 0.102902 -3.59255e-11 -6.7885e-14 -3.1726e-13 10.2786 0.731801 0.0259123 -3.59419e-11 -6.75868e-14 -3.08514e-13 2.22167 -0.733487 -0.20892 -3.77569e-15 -2.32951e-18 -4.96962e-17 -8.07024e-14 -2.48481e-17 -1.78906e-15 -1.32689e-12 -4.03732e-13 -1.27222e-14 -1.52382e-11 3.76871e-13 -1.20861e-13 -3.59302e-11 -5.94041e-14 -3.05333e-13 -6.20455e-11 -9.85972e-14 -5.28767e-13 -3.59363e-11 -5.92378e-14 -2.98972e-13 -7.73091 5.47488 -0.417314 -3.59306e-11 -5.9039e-14 -3.08514e-13 -2.90554 0.965183 -0.102902 -3.59425e-11 -5.88403e-14 -3.05333e-13 -10.2786 0.731801 -0.0259123 -3.59275e-11 -5.84427e-14 -3.11694e-13 -2.22167 -0.733487 0.20892 -2.03217e-16 0.0 -3.88251e-19 2.21586 -8.02969 -0.231385 0.00606931 8.9736 0.15205 -0.47808 -0.951421 0.0349059 2.03217e-16 0.0 3.88251e-19 1.35243 -1.92788 -0.00536415 0.00846385 -2.07867 0.0694359 0.423473 3.99898 -0.127232
54.1025 84.9561 129.107 179.719 0.9176 178.727 2.15814 0.763654 0.161044 0.934284 -2.68519 0.219319 -1.70071 1.66225 -0.879912 3.60898 -1.21855 -0.889828 -0.0 0.0 0.0 -0.0 0.0 0.0 3.37183e-15 -5.76876e-15 -9.77889e-15 22.0835 11.9304 -2.49567 -5.8319 -3.07606 8.59859 0.0901057 6.67627 0.915548 -9.54485e-11 1.38977e-10 -4.81253e-11 -1.65991e-10 2.38248e-10 -8.14443e-11 -9.54447e-11 1.38982e-10 -4.81344e-11 7.73091 5.47488 0.417314 -9.54482e-11 1.38976e-10 -4.81203e-11 2.90554 0.965183 0.102902 -9.54391e-11 1.38977e-10 -4.8122e-11 10.2786 0.731801 0.0259123 -9.54542e-11 1.38977e-10 -4.81134e-11 2.22167 -0.733487 -0.20892 3.45112e-15 -5.76656e-15 -9.93147e-15 -22.833 7.93299 3.14413 5.69257 -2.96802 -8.4379 -0.0246587 3.48447 -0.486444 6.06155e-11 6.76942e-11 -3.71496e-11 1.04736e-10 1.16044e-10 -6.53843e-11 6.06085e-11 6.76948e-11 -3.71424e-11 -7.73091 5.47488 -0.417314 6.06148e-11 6.76923e-11 -3.7151e-11 -2.90554 0.965183 -0.102902 6.06043e-11 6.76925e-11 -3.71509e-11 -10.2786 0.731801 -0.0259123 6.06194e-11 6.76937e-11 -3.71585e-11 -2.22167 -0.733487 0.20892 -2.03217e-16 0.0 -3.88251e-19 4.44998 -7.75011 5.06931 0.0257126 12.3333 0.217264 -1.40073 -4.26037 -8.37361 2.03217e-16 0.0 3.88251e-19 -0.087745 -2.99087 -6.37296 -0.00744611 3.17722 -0.0970311 1.10769 -0.879445 6.09852
54.1042 84.9575 129.106 179.757 0.8709 178.731 1.96166 1.571 0.266955 1.24912 -5.52873 0.334694 -3.44209 3.41422 -1.81423 7.38229 -2.4918 -1.83497 -0.0 0.0 0.0 -0.0 0.0 0.0 1.12628e-14 -1.11341e-14 -2.11488e-14 46.6628 24.4401 -5.52897 -10.9964 -6.08975 17.7555 -0.0533155 13.7696 1.93152 -1.53244e-10 2.79653e-10 -9.84167e-11 -2.67012e-10 4.79472e-10 -1.6663e-10 -1.53242e-10 2.79658e-10 -9.84288e-11 7.73091 5.47488 0.417314 -1.53244e-10 2.79651e-10 -9.84167e-11 2.90554 0.965183 0.102902 -1.53236e-10 2.79652e-10 -9.84142e-11 10.2786 0.731801 0.0259123 -1.53249e-10 2.79652e-10 -9.84058e-11 2.22167 -0.733487 -0.20892 1.13217e-14 -1.11331e-14 -2.13569e-14 -47.9522 16.2391 6.67327 10.7693 -5.89024 -17.4283 0.0140753 7.16927 -1.00699 1.64916e-10 1.47424e-10 -7.25447e-11 2.84968e-10 2.52879e-10 -1.27815e-10 1.64908e-10 1.47425e-10 -7.25365e-11 -7.73091 5.47488 -0.417314 1.64915e-10 1.4742e-10 -7.25441e-11 -2.90554 0.965183 -0.102902 1.64906e-10 1.4742e-10 -7.25473e-11 -10.2786 0.731801 -0.0259123 1.64922e-10 1.47422e-10 -7.25562e-11 -2.22167 -0.733487 0.20892 -2.03217e-16 0.0 -3.88251e-19 6.75367 -7.38975 10.663 0.037794 15.8846 0.288803 -3.42143 -7.49001 -17.3685 2.03217e-16 0.0 3.88251e-19 -1.86654 -4.04654 -13.1224 0.00920275 8.7342 -0.275875 2.97954 -5.89721 12.7511
54.0803 84.9513 129.121 179.738 0.6953 178.808 1.78462 2.29537 0.355932 1.54025 -8.06731 0.437691 -4.94852 4.98204 -2.64864 10.7132 -3.65213 -2.67432 -0.0 0.0 0.0 -0.0 0.0 0.0 1.78711e-14 -1.72946e-14 -2.94361e-14 69.9605 35.4873 -9.00888 -14.8052 -8.39845 26.0584 -0.404465 20.0077 2.90338 -2.14474e-10 4.17069e-10 -1.43733e-10 -3.73854e-10 7.14978e-10 -2.43236e-10 -2.14473e-10 4.17075e-10 -1.43748e-10 7.73091 5.47488 0.417314 -2.14475e-10 4.17066e-10 -1.43738e-10 2.90554 0.965183 0.102902 -2.14466e-10 4.17067e-10 -1.43731e-10 10.2786 0.731801 0.0259123 -2.14479e-10 4.17068e-10 -1.43723e-10 2.22167 -0.733487 -0.20892 1.79048e-14 -1.7295e-14 -2.9695e-14 -71.2976 23.4991 10.1955 14.528 -8.13315 -25.5547 0.106051 10.4504 -1.48121 2.53707e-10 2.03201e-10 -1.10838e-10 4.38299e-10 3.48331e-10 -1.95095e-10 2.53698e-10 2.03203e-10 -1.10829e-10 -7.73091 5.47488 -0.417314 2.53706e-10 2.03195e-10 -1.10836e-10 -2.90554 0.965183 -0.102902 2.53698e-10 2.03195e-10 -1.10842e-10 -10.2786 0.731801 -0.0259123 2.53713e-10 2.03198e-10 -1.10852e-10 -2.22167 -0.733487 0.20892 -2.03217e-16 0.0 -3.88251e-19 8.75634 -7.01394 15.6469 0.0406193 19.0525 0.355867 -6.08946 -9.96236 -25.5327 2.03217e-16 0.0 3.88251e-19 -3.66191 -4.88761 -19.1543 0.054232 13.6886 -0.441981 5.63554 -10.0922 18.8496
